<?xml version="1.0" encoding="UTF-8"?>
<svg version="1.1" xmlns="http://www.w3.org/2000/svg" width="512" height="512">
<path d="M0 0 C0.9226918 -0.00705963 1.84538361 -0.01411926 2.79603577 -0.02139282 C41.40006913 -0.24977945 41.40006913 -0.24977945 57.98828125 3.203125 C58.96458496 3.40180176 59.94088867 3.60047852 60.94677734 3.80517578 C104.25816812 12.86656219 147.19681024 31.3187631 179.6875 62.04296875 C181.68168324 63.91526642 183.71219835 65.71504898 185.77734375 67.5078125 C189.83405223 71.042776 193.76554037 74.69512526 197.67578125 78.390625 C199.08036594 79.71262561 200.48531879 81.03423516 201.890625 82.35546875 C202.58140137 83.00499512 203.27217773 83.65452148 203.98388672 84.32373047 C212.91214043 92.69519174 221.96024976 100.93962951 230.98828125 109.203125 C227.25620643 110.54860689 224.63601828 109.85210177 220.84960938 108.87963867 C219.60731567 108.56568649 218.36502197 108.25173431 217.08508301 107.92826843 C215.72988734 107.57592205 214.37470373 107.22352929 213.01953125 106.87109375 C211.6193446 106.51476901 210.21890868 106.15942249 208.8182373 105.80500793 C205.12512925 104.86842503 201.43477943 103.92143061 197.74511719 102.97137451 C191.86962157 101.45943864 185.99103278 99.9597405 180.11070251 98.46673012 C178.07360042 97.94737848 176.03827723 97.42147123 174.00305176 96.89482117 C136.04746454 87.21035628 94.47122177 88.9835762 59.98144531 109.03710938 C32.36136886 125.79465149 16.63700418 152.53361561 7.953125 182.8125 C3.77122818 200.94053643 3.9861573 222.25195439 8.98828125 240.203125 C9.32859375 241.43289062 9.66890625 242.66265625 10.01953125 243.9296875 C15.98006524 263.38197071 27.13402462 280.32758278 38.58984375 296.9453125 C39.98828125 299.203125 39.98828125 299.203125 39.98828125 301.203125 C18.20828125 301.203125 -3.57171875 301.203125 -26.01171875 301.203125 C-20.01025537 317.56104641 -20.01025537 317.56104641 -12.63671875 333.140625 C-12.17539551 334.00413574 -11.71407227 334.86764648 -11.23876953 335.75732422 C-7.08082835 343.3790334 -2.3470119 350.36591626 2.98828125 357.203125 C4.06142578 358.60884766 4.06142578 358.60884766 5.15625 360.04296875 C31.10148374 392.98254601 69.25239382 413.73126732 110.76953125 418.9765625 C141.41243647 422.37194082 169.51136778 415.56528595 199.05078125 407.953125 C202.844987 406.97739634 206.63971317 406.00398942 210.43638611 405.03790283 C212.77506831 404.44270935 215.11236044 403.8420187 217.44801331 403.23504639 C219.02267616 402.83397675 219.02267616 402.83397675 220.62915039 402.42480469 C222.00521202 402.06983917 222.00521202 402.06983917 223.40907288 401.70770264 C226.00373026 401.20010267 228.3517952 401.11014403 230.98828125 401.203125 C230.27285156 401.91726563 229.55742187 402.63140625 228.8203125 403.3671875 C226.99819069 405.18866839 225.18464258 407.01757496 223.375 408.8515625 C222.03888672 410.20121094 222.03888672 410.20121094 220.67578125 411.578125 C219.79277344 412.47273438 218.90976562 413.36734375 218 414.2890625 C215.14131689 417.11365569 212.11941554 419.72892829 209.08325195 422.35986328 C205.55067469 425.46800433 202.15119616 428.71487753 198.73828125 431.953125 C197.2334043 433.37144544 195.72819489 434.78941321 194.22265625 436.20703125 C191.74668082 438.54075343 189.27740151 440.8809723 186.81640625 443.23046875 C147.23946247 480.45684819 95.84148457 504.51595348 41.98828125 511.203125 C41.30556152 511.2973877 40.6228418 511.39165039 39.91943359 511.48876953 C-26.94456326 519.62304031 -94.42394602 498.73320052 -147.19921875 457.765625 C-154.14113187 452.27271403 -160.64137511 446.34397563 -167.01171875 440.203125 C-167.56778809 439.66896973 -168.12385742 439.13481445 -168.69677734 438.58447266 C-176.01109471 431.52201127 -182.81882884 424.28773369 -189.01171875 416.203125 C-189.5231543 415.54634766 -190.03458984 414.88957031 -190.56152344 414.21289062 C-199.91262733 402.15843818 -207.8238224 389.65267032 -215.01171875 376.203125 C-215.39553711 375.4905957 -215.77935547 374.77806641 -216.17480469 374.04394531 C-227.62123981 352.6116609 -235.46364566 329.5514082 -240.32421875 305.765625 C-240.47149414 305.04697266 -240.61876953 304.32832031 -240.77050781 303.58789062 C-243.71314389 288.10976271 -244.3855505 272.79692712 -244.32421875 257.078125 C-244.3220636 256.08356293 -244.31990845 255.08900085 -244.31768799 254.06430054 C-244.26732892 239.58373834 -243.91655231 225.4349825 -241.01171875 211.203125 C-240.81304199 210.18911621 -240.61436523 209.17510742 -240.40966797 208.13037109 C-228.60212427 149.0926526 -196.15702086 93.09553105 -148.01171875 56.203125 C-146.58085937 55.04683594 -146.58085937 55.04683594 -145.12109375 53.8671875 C-104.89161421 21.8251146 -51.77616701 0.26504138 0 0 Z " fill="#FFDA2C" transform="translate(244.01171875,-0.203125)"/>
<path d="M0 0 C85.14 0 170.28 0 258 0 C260.97 5.61 263.94 11.22 267 17 C269.59769883 21.1384543 272.20186364 25.2094176 274.9375 29.25 C276.24232962 31.18999154 277.5432724 33.13260443 278.83984375 35.078125 C279.68083618 36.32190918 279.68083618 36.32190918 280.53881836 37.59082031 C282 40 282 40 284 45 C262.22 45 240.44 45 218 45 C224.00146338 61.35792141 224.00146338 61.35792141 231.375 76.9375 C231.83632324 77.80101074 232.29764648 78.66452148 232.77294922 79.55419922 C236.9308904 87.1759084 241.66470685 94.16279126 247 101 C247.71542969 101.93714844 248.43085938 102.87429688 249.16796875 103.83984375 C275.11320249 136.77942101 313.26411257 157.52814232 354.78125 162.7734375 C385.42415522 166.16881582 413.52308653 159.36216095 443.0625 151.75 C446.85670575 150.77427134 450.65143192 149.80086442 454.44810486 148.83477783 C456.78678706 148.23958435 459.12407919 147.6388937 461.45973206 147.03192139 C463.03439491 146.63085175 463.03439491 146.63085175 464.64086914 146.22167969 C466.01693077 145.86671417 466.01693077 145.86671417 467.42079163 145.50457764 C470.01544901 144.99697767 472.36351395 144.90701903 475 145 C474.28457031 145.71414063 473.56914062 146.42828125 472.83203125 147.1640625 C471.00990944 148.98554339 469.19636133 150.81444996 467.38671875 152.6484375 C466.49597656 153.54820312 465.60523438 154.44796875 464.6875 155.375 C463.80449219 156.26960937 462.92148437 157.16421875 462.01171875 158.0859375 C459.15303564 160.91053069 456.13113429 163.52580329 453.0949707 166.15673828 C449.56239344 169.26487933 446.16291491 172.51175253 442.75 175.75 C441.24512305 177.16832044 439.73991364 178.58628821 438.234375 180.00390625 C435.75839957 182.33762843 433.28912026 184.6778473 430.828125 187.02734375 C391.25118122 224.25372319 339.85320332 248.31282848 286 255 C284.97592041 255.14139404 284.97592041 255.14139404 283.93115234 255.28564453 C217.06715549 263.41991531 149.58777273 242.53007552 96.8125 201.5625 C89.87058688 196.06958903 83.37034364 190.14085063 77 184 C76.44393066 183.46584473 75.88786133 182.93168945 75.31494141 182.38134766 C68.00062404 175.31888627 61.19288991 168.08460869 55 160 C54.48856445 159.34322266 53.97712891 158.68644531 53.45019531 158.00976562 C44.09909142 145.95531318 36.18789635 133.44954532 29 120 C28.61618164 119.2874707 28.23236328 118.57494141 27.83691406 117.84082031 C14.86474066 93.55174631 6.45751832 67.1403006 2 40 C1.88285645 39.29391602 1.76571289 38.58783203 1.64501953 37.86035156 C-0.37561519 25.12404774 0 13.0611289 0 0 Z " fill="#FDBF00" transform="translate(0,256)"/>
<path d="M0 0 C3.56073192 3.45469781 6.54766274 6.86051418 9.0847168 11.11914062 C9.0847168 11.77914062 9.0847168 12.43914062 9.0847168 13.11914062 C9.7653418 12.95027344 10.4459668 12.78140625 11.1472168 12.60742188 C26.11895329 10.11876887 40.78425397 15.31697141 52.9206543 23.76757812 C65.57454958 33.17207808 73.7593819 46.6626563 77.0847168 62.11914062 C78.02292032 74.13720424 78.03686131 85.97293449 73.0847168 97.11914062 C72.68381836 98.0446875 72.28291992 98.97023438 71.86987305 99.92382812 C64.17686492 115.66662157 51.15306099 125.19206453 35.0300293 131.17382812 C30.57075721 132.60505338 26.49925464 133.24412635 21.81871033 133.26631165 C20.25675934 133.2770446 20.25675934 133.2770446 18.66325378 133.28799438 C16.96523369 133.29202774 16.96523369 133.29202774 15.23291016 133.29614258 C14.03225922 133.30271378 12.83160828 133.30928497 11.59457397 133.3160553 C7.62124258 133.33576424 3.64792445 133.34745375 -0.32543945 133.35742188 C-1.69867917 133.36147276 -3.07191869 133.36558978 -4.445158 133.36977196 C-10.9015157 133.38881094 -17.35786208 133.40304228 -23.81424242 133.41138393 C-31.23994373 133.42113896 -38.66534558 133.44741818 -46.09094149 133.48788482 C-51.84744791 133.51816671 -57.6038691 133.53286433 -63.36045355 133.53616494 C-66.79039072 133.53850251 -70.22000755 133.54729158 -73.64985847 133.57262611 C-77.48604996 133.59708596 -81.32146855 133.59603918 -85.15771484 133.58911133 C-86.83448051 133.60832642 -86.83448051 133.60832642 -88.54512024 133.62792969 C-101.68912531 133.54191067 -112.22953989 129.19369163 -121.88012695 120.31054688 C-132.20842167 109.43984718 -134.49899985 97.59865838 -134.2512207 83.25585938 C-133.67440858 70.23945022 -126.79313138 60.32979615 -117.4152832 51.74414062 C-113.72592413 48.75872823 -108.8105812 45.11914062 -103.9152832 45.11914062 C-103.96168945 44.33152344 -104.0080957 43.54390625 -104.0559082 42.73242188 C-104.34132016 34.11909676 -103.01368485 27.14215417 -99.9152832 19.11914062 C-99.58786133 18.25546875 -99.26043945 17.39179688 -98.9230957 16.50195312 C-92.79266556 2.49593388 -79.70598111 -8.00936527 -65.9152832 -13.88085938 C-42.68322512 -22.36408058 -17.95054134 -16.82098596 0 0 Z " fill="#B760EA" transform="translate(434.915283203125,197.880859375)"/>
<path d="M0 0 C3.56073192 3.45469781 6.54766274 6.86051418 9.0847168 11.11914062 C9.0847168 11.77914062 9.0847168 12.43914062 9.0847168 13.11914062 C9.7653418 12.95027344 10.4459668 12.78140625 11.1472168 12.60742188 C26.11895329 10.11876887 40.78425397 15.31697141 52.9206543 23.76757812 C63.54936545 31.66694123 71.2490288 42.34939672 75.0847168 55.11914062 C75.0847168 56.10914063 75.0847168 57.09914063 75.0847168 58.11914062 C9.7447168 58.11914062 -55.5952832 58.11914062 -122.9152832 58.11914062 C-116.1437345 50.21900047 -116.1437345 50.21900047 -111.1652832 47.68164062 C-109.74989258 46.94107422 -109.74989258 46.94107422 -108.3059082 46.18554688 C-105.9152832 45.11914062 -105.9152832 45.11914062 -103.9152832 45.11914062 C-103.96168945 44.33152344 -104.0080957 43.54390625 -104.0559082 42.73242188 C-104.34132016 34.11909676 -103.01368485 27.14215417 -99.9152832 19.11914062 C-99.58786133 18.25546875 -99.26043945 17.39179688 -98.9230957 16.50195312 C-92.79266556 2.49593388 -79.70598111 -8.00936527 -65.9152832 -13.88085938 C-42.68322512 -22.36408058 -17.95054134 -16.82098596 0 0 Z " fill="#D98FF7" transform="translate(434.915283203125,197.880859375)"/>
<path d="M0 0 C9.9 0 19.8 0 30 0 C30.20625 2.289375 30.4125 4.57875 30.625 6.9375 C32.75269771 25.6418088 40.88837531 40.61185599 54 54 C54.57878906 54.61488281 55.15757812 55.22976563 55.75390625 55.86328125 C59.9848254 59.98061868 64.8659809 62.84810867 70 65.6875 C70.64517578 66.05625244 71.29035156 66.42500488 71.95507812 66.80493164 C81.76251346 71.99317734 92.58350134 74.34343564 103.61328125 74.1875 C104.68665237 74.17400261 104.68665237 74.17400261 105.78170776 74.16023254 C108.6980302 74.10771442 111.60955211 74.0358734 114.52270508 73.88720703 C127.48616366 73.28745875 127.48616366 73.28745875 132.34692383 77.58886719 C135.19530348 80.51494366 137.57875754 83.71726677 140 87 C144.94536154 92.36581295 150.27398229 96.93605288 156.09375 101.3359375 C156.7228125 101.88507813 157.351875 102.43421875 158 103 C158 103.66 158 104.32 158 105 C150.30568031 105.04675336 142.61137572 105.08208419 134.91694546 105.10362434 C131.34244637 105.11397295 127.76804588 105.12796449 124.19360352 105.15087891 C120.73114647 105.17293142 117.26878303 105.18463528 113.80626106 105.18975449 C111.87076347 105.19513953 109.93530248 105.21069755 107.99986267 105.22659302 C96.22898783 105.22805034 84.30540194 104.37605068 73.125 100.4375 C72.38378906 100.18210449 71.64257812 99.92670898 70.87890625 99.66357422 C58.37348424 95.15918892 46.93213089 88.86490019 37 80 C36.18402344 79.32582031 35.36804688 78.65164063 34.52734375 77.95703125 C17.05252703 63.12909558 6.78262013 42.79923576 1.625 20.75 C1.45718018 20.05438965 1.28936035 19.3587793 1.11645508 18.64208984 C-0.28703244 12.14196579 0 7.02083663 0 0 Z " fill="#FE9100" transform="translate(121,286)"/>
<path d="M0 0 C19.8 0 39.6 0 60 0 C60 9.9 60 19.8 60 30 C40.2 30 20.4 30 0 30 C0 20.1 0 10.2 0 0 Z " fill="#FDBF00" transform="translate(91,181)"/>
</svg>
